<svg width="628pt" height="98pt" viewBox="0.00 0.00 628.06 98.00" xmlns="http://www.w3.org/2000/svg" xmlns:xlink="http://www.w3.org/1999/xlink">
<g id="graph0" class="graph" transform="scale(1 1) rotate(0) translate(4 94)">
<title>%3</title>
<polygon fill="#ffffff" stroke="transparent" points="-4,4 -4,-94 624.0586,-94 624.0586,4 -4,4"/>
<!-- X -->
<g id="node1" class="node">
<title>X</title>
<polygon fill="#3cb371" stroke="#3cb371" points="216,-90 0,-90 0,-54 216,-54 216,-90"/>
<text text-anchor="middle" x="108" y="-66" font-family="Helvetica,sans-Serif" font-size="20.00" fill="#000000">Controllable Factors</text>
</g>
<!-- P -->
<g id="node3" class="node">
<title>P</title>
<polygon fill="#add8e6" stroke="#add8e6" points="468,-90 252,-90 252,0 468,0 468,-90"/>
<text text-anchor="middle" x="360" y="-39" font-family="Helvetica,sans-Serif" font-size="20.00" fill="#000000">Process</text>
</g>
<!-- X&#45;&gt;P -->
<g id="edge1" class="edge">
<title>X&#45;&gt;P</title>
<path fill="none" stroke="#000000" d="M167.4014,-53.9751C189.6892,-50.2264 215.8784,-46.8146 241.6402,-44.2035"/>
<polygon fill="#000000" stroke="#000000" points="242.2531,-47.6604 251.8666,-43.2071 241.5742,-40.6934 242.2531,-47.6604"/>
</g>
<!-- X&#45;&gt;P -->
<g id="edge4" class="edge">
<title>X&#45;&gt;P</title>
<path fill="none" stroke="#000000" d="M216.3332,-60.3929C224.7707,-59.4889 233.316,-58.5733 241.8138,-57.6628"/>
<polygon fill="#000000" stroke="#000000" points="242.1881,-61.1428 251.7583,-56.5973 241.4423,-54.1827 242.1881,-61.1428"/>
</g>
<!-- X&#45;&gt;P -->
<g id="edge7" class="edge">
<title>X&#45;&gt;P</title>
<path fill="none" stroke="#000000" d="M216.3332,-73.7742C224.7707,-72.9842 233.316,-72.1005 241.8138,-71.1397"/>
<polygon fill="#000000" stroke="#000000" points="242.2322,-74.6147 251.7583,-69.9774 241.4196,-67.662 242.2322,-74.6147"/>
</g>
<!-- Z -->
<g id="node2" class="node">
<title>Z</title>
<polygon fill="#ee6363" stroke="#ee6363" points="216,-36 0,-36 0,0 216,0 216,-36"/>
<text text-anchor="middle" x="108" y="-12" font-family="Helvetica,sans-Serif" font-size="20.00" fill="#000000">Noise Factors</text>
</g>
<!-- Z&#45;&gt;P -->
<g id="edge2" class="edge">
<title>Z&#45;&gt;P</title>
<path fill="none" stroke="#000000" d="M216.3332,-16.2258C224.7707,-17.0158 233.316,-17.8995 241.8138,-18.8603"/>
<polygon fill="#000000" stroke="#000000" points="241.4196,-22.338 251.7583,-20.0226 242.2322,-15.3853 241.4196,-22.338"/>
</g>
<!-- Z&#45;&gt;P -->
<g id="edge5" class="edge">
<title>Z&#45;&gt;P</title>
<path fill="none" stroke="#000000" d="M216.3332,-29.6071C224.7707,-30.5111 233.316,-31.4267 241.8138,-32.3372"/>
<polygon fill="#000000" stroke="#000000" points="241.4423,-35.8173 251.7583,-33.4027 242.1881,-28.8572 241.4423,-35.8173"/>
</g>
<!-- Z&#45;&gt;P -->
<g id="edge8" class="edge">
<title>Z&#45;&gt;P</title>
<path fill="none" stroke="#000000" d="M167.4014,-36.0249C189.6892,-39.7736 215.8784,-43.1854 241.6402,-45.7965"/>
<polygon fill="#000000" stroke="#000000" points="241.5742,-49.3066 251.8666,-46.7929 242.2531,-42.3396 241.5742,-49.3066"/>
</g>
<!-- Y -->
<g id="node4" class="node">
<title>Y</title>
<polygon fill="#add8e6" stroke="#add8e6" points="620.0879,-63 503.9707,-63 503.9707,-27 620.0879,-27 620.0879,-63"/>
<text text-anchor="middle" x="562.0293" y="-39" font-family="Helvetica,sans-Serif" font-size="20.00" fill="#000000">Responses</text>
</g>
<!-- P&#45;&gt;Y -->
<g id="edge3" class="edge">
<title>P&#45;&gt;Y</title>
<path fill="none" stroke="#000000" d="M468.112,-31.5297C476.7534,-31.602 485.3252,-31.8066 493.5727,-32.1436"/>
<polygon fill="#000000" stroke="#000000" points="493.6691,-35.6523 503.827,-32.6412 494.0084,-28.6605 493.6691,-35.6523"/>
</g>
<!-- P&#45;&gt;Y -->
<g id="edge6" class="edge">
<title>P&#45;&gt;Y</title>
<path fill="none" stroke="#000000" d="M468.112,-45C476.7534,-45 485.3252,-45 493.5727,-45"/>
<polygon fill="#000000" stroke="#000000" points="493.827,-48.5001 503.827,-45 493.827,-41.5001 493.827,-48.5001"/>
</g>
<!-- P&#45;&gt;Y -->
<g id="edge9" class="edge">
<title>P&#45;&gt;Y</title>
<path fill="none" stroke="#000000" d="M468.112,-58.4703C476.7534,-58.398 485.3252,-58.1934 493.5727,-57.8564"/>
<polygon fill="#000000" stroke="#000000" points="494.0084,-61.3395 503.827,-57.3588 493.6691,-54.3477 494.0084,-61.3395"/>
</g>
</g>
</svg>
