<?xml version="1.0" encoding="UTF-8" standalone="no"?>
<!-- Created with Inkscape (http://www.inkscape.org/) -->

<svg
   xmlns:dc="http://purl.org/dc/elements/1.1/"
   xmlns:cc="http://creativecommons.org/ns#"
   xmlns:rdf="http://www.w3.org/1999/02/22-rdf-syntax-ns#"
   xmlns:svg="http://www.w3.org/2000/svg"
   xmlns="http://www.w3.org/2000/svg"
   version="1.1"
   width="300.9375"
   height="75.262497"
   id="svg2985"
   xml:space="preserve"><metadata
     id="metadata2991"><rdf:RDF><cc:Work
         rdf:about=""><dc:format>image/svg+xml</dc:format><dc:type
           rdf:resource="http://purl.org/dc/dcmitype/StillImage" /><dc:title></dc:title></cc:Work></rdf:RDF></metadata><defs
     id="defs2989" /><g
     transform="matrix(1.25,0,0,-1.25,0,75.2625)"
     id="g2993"><g
       transform="scale(0.1,0.1)"
       id="g2995"><path
         d="m 773.129,177.402 c 0,-18.144 -7.703,-32.48 -23.102,-42.988 -15.398,-10.508 -36.839,-15.742 -64.312,-15.742 l -115.512,0 0,27.687 107.602,0 c 34.953,0 52.433,9.579 52.433,28.758 0,12.071 -13.558,23.242 -40.672,33.555 -25.312,8.867 -50.621,17.93 -75.929,27.148 -27.422,13.145 -41.125,28.926 -41.125,47.395 0,17.39 7.926,30.976 23.789,40.73 15.855,9.766 36.629,14.649 62.308,14.649 l 100.61,0 0,-27.696 -106.289,0 c -11.758,0 -21.035,-2.226 -27.813,-6.679 -6.793,-4.446 -10.176,-10.946 -10.176,-19.492 0,-10.684 13.555,-21.004 40.68,-30.957 25.309,-9.258 50.766,-18.516 76.375,-27.774 27.418,-13.176 41.133,-29.375 41.133,-48.594"
         id="path2997"
         style="fill:#ffffff;fill-opacity:1;fill-rule:nonzero;stroke:none" /><path
         d="m 773.129,177.402 c 0,-18.144 -7.703,-32.48 -23.102,-42.988 -15.398,-10.508 -36.839,-15.742 -64.312,-15.742 l -115.512,0 0,27.687 107.602,0 c 34.953,0 52.433,9.579 52.433,28.758 0,12.071 -13.558,23.242 -40.672,33.555 -25.312,8.867 -50.621,17.93 -75.929,27.148 -27.422,13.145 -41.125,28.926 -41.125,47.395 0,17.39 7.926,30.976 23.789,40.73 15.855,9.766 36.629,14.649 62.308,14.649 l 100.61,0 0,-27.696 -106.289,0 c -11.758,0 -21.035,-2.226 -27.813,-6.679 -6.793,-4.446 -10.176,-10.946 -10.176,-19.492 0,-10.684 13.555,-21.004 40.68,-30.957 25.309,-9.258 50.766,-18.516 76.375,-27.774 27.418,-13.176 41.133,-29.375 41.133,-48.594 z"
         id="path2999"
         style="fill:none;stroke:#ffffff;stroke-width:5.0999999;stroke-linecap:butt;stroke-linejoin:miter;stroke-miterlimit:4;stroke-opacity:1;stroke-dasharray:none" /><path
         d="m 919.379,118.672 -53.031,0 c -20.25,0 -35.957,4.269 -47.133,12.812 -11.188,8.536 -16.77,20.45 -16.77,35.75 l 0,139.868 39.66,0 0,-38.02 77.274,0 0,-27.148 -77.274,0 0,-78.164 c 0,-6.7 2.336,-11.454 7.004,-14.266 4.668,-2.813 12.121,-4.231 22.371,-4.231 l 47.899,0 0,-26.601"
         id="path3001"
         style="fill:#ffffff;fill-opacity:1;fill-rule:nonzero;stroke:none" /><path
         d="m 919.379,118.672 -53.031,0 c -20.25,0 -35.957,4.269 -47.133,12.812 -11.188,8.536 -16.77,20.45 -16.77,35.75 l 0,139.868 39.66,0 0,-38.02 77.274,0 0,-27.148 -77.274,0 0,-78.164 c 0,-6.7 2.336,-11.454 7.004,-14.266 4.668,-2.813 12.121,-4.231 22.371,-4.231 l 47.899,0 0,-26.601 z"
         id="path3003"
         style="fill:none;stroke:#ffffff;stroke-width:5.0999999;stroke-linecap:butt;stroke-linejoin:miter;stroke-miterlimit:4;stroke-opacity:1;stroke-dasharray:none" /><path
         d="m 1157.91,118.672 -39.66,0 0,83.992 c 0,13.457 -7.26,24.094 -21.79,31.899 -13.01,7.085 -29.19,10.632 -48.55,10.632 -21.18,0 -38.35,-5.039 -51.508,-15.078 -13.16,-10.058 -19.742,-22.5 -19.742,-37.304 0,-13.77 6.738,-25.672 20.227,-35.711 13.483,-10.063 30.373,-15.079 50.673,-15.079 10.92,0 20.84,1.747 29.77,5.282 8.94,3.535 17.2,8.64 24.78,15.351 l 0,-32.746 c -9.71,-5.015 -17.9,-8.594 -24.56,-10.73 -9.41,-2.149 -20.78,-3.235 -34.11,-3.235 -30.63,0 -56.034,7.66 -76.198,22.961 -20.164,15.293 -30.246,33.985 -30.246,56.035 0,22.422 9.828,40.567 29.488,54.446 20.864,14.937 48.236,22.422 82.096,22.422 33.57,0 60.18,-6.411 79.84,-19.211 19.66,-12.825 29.49,-30.071 29.49,-51.758 l 0,-82.168"
         id="path3005"
         style="fill:#ffffff;fill-opacity:1;fill-rule:nonzero;stroke:none" /><path
         d="m 1157.91,118.672 -39.66,0 0,83.992 c 0,13.457 -7.26,24.094 -21.79,31.899 -13.01,7.085 -29.19,10.632 -48.55,10.632 -21.18,0 -38.35,-5.039 -51.508,-15.078 -13.16,-10.058 -19.742,-22.5 -19.742,-37.304 0,-13.77 6.738,-25.672 20.227,-35.711 13.483,-10.063 30.373,-15.079 50.673,-15.079 10.92,0 20.84,1.747 29.77,5.282 8.94,3.535 17.2,8.64 24.78,15.351 l 0,-32.746 c -9.71,-5.015 -17.9,-8.594 -24.56,-10.73 -9.41,-2.149 -20.78,-3.235 -34.11,-3.235 -30.63,0 -56.034,7.66 -76.198,22.961 -20.164,15.293 -30.246,33.985 -30.246,56.035 0,22.422 9.828,40.567 29.488,54.446 20.864,14.937 48.236,22.422 82.096,22.422 33.57,0 60.18,-6.411 79.84,-19.211 19.66,-12.825 29.49,-30.071 29.49,-51.758 l 0,-82.168 z"
         id="path3007"
         style="fill:none;stroke:#ffffff;stroke-width:5.0999999;stroke-linecap:butt;stroke-linejoin:miter;stroke-miterlimit:4;stroke-opacity:1;stroke-dasharray:none" /><path
         d="m 1304.32,118.672 -53.03,0 c -20.25,0 -35.96,4.269 -47.13,12.812 -11.19,8.536 -16.78,20.45 -16.78,35.75 l 0,139.868 39.67,0 0,-38.02 77.27,0 0,-27.148 -77.27,0 0,-78.164 c 0,-6.7 2.33,-11.454 7,-14.266 4.67,-2.813 12.12,-4.231 22.38,-4.231 l 47.89,0 0,-26.601"
         id="path3009"
         style="fill:#ffffff;fill-opacity:1;fill-rule:nonzero;stroke:none" /><path
         d="m 1304.32,118.672 -53.03,0 c -20.25,0 -35.96,4.269 -47.13,12.812 -11.19,8.536 -16.78,20.45 -16.78,35.75 l 0,139.868 39.67,0 0,-38.02 77.27,0 0,-27.148 -77.27,0 0,-78.164 c 0,-6.7 2.33,-11.454 7,-14.266 4.67,-2.813 12.12,-4.231 22.38,-4.231 l 47.89,0 0,-26.601 z"
         id="path3011"
         style="fill:none;stroke:#ffffff;stroke-width:5.0999999;stroke-linecap:butt;stroke-linejoin:miter;stroke-miterlimit:4;stroke-opacity:1;stroke-dasharray:none" /><path
         d="m 1323.71,181.113 100.629,0 0,25.5273 -100.629,0 0,-25.5273 z"
         id="path3013"
         style="fill:#ffffff;fill-opacity:1;fill-rule:nonzero;stroke:none" /><path
         d="m 1323.71,181.113 100.629,0 0,25.5273 -100.629,0 0,-25.5273 z"
         id="path3015"
         style="fill:none;stroke:#ffffff;stroke-width:5.0999999;stroke-linecap:butt;stroke-linejoin:miter;stroke-miterlimit:4;stroke-opacity:1;stroke-dasharray:none" /><path
         d="m 1655.66,118.672 -33.51,0 c -46.5,0 -85.22,10.398 -116.15,31.223 -30.95,20.82 -46.43,46.882 -46.43,78.203 0,31.668 15.33,58.007 45.97,79.004 30.63,20.984 69.51,31.492 116.61,31.492 l 33.51,0 0,-27.696 -28.47,0 c -37.35,0 -68.23,-8.015 -92.62,-24.043 -20.48,-13.527 -30.72,-27.238 -30.72,-41.121 l 151.81,0 0,-27.687 -151.81,0 c 0,-20.039 11.6,-37.07 34.79,-51.133 21.99,-13.711 47.29,-20.555 75.91,-20.555 l 41.11,0 0,-27.687"
         id="path3017"
         style="fill:#ffffff;fill-opacity:1;fill-rule:nonzero;stroke:none" /><path
         d="m 1655.66,118.672 -33.51,0 c -46.5,0 -85.22,10.398 -116.15,31.223 -30.95,20.82 -46.43,46.882 -46.43,78.203 0,31.668 15.33,58.007 45.97,79.004 30.63,20.984 69.51,31.492 116.61,31.492 l 33.51,0 0,-27.696 -28.47,0 c -37.35,0 -68.23,-8.015 -92.62,-24.043 -20.48,-13.527 -30.72,-27.238 -30.72,-41.121 l 151.81,0 0,-27.687 -151.81,0 c 0,-20.039 11.6,-37.07 34.79,-51.133 21.99,-13.711 47.29,-20.555 75.91,-20.555 l 41.11,0 0,-27.687 z"
         id="path3019"
         style="fill:none;stroke:#ffffff;stroke-width:5.0999999;stroke-linecap:butt;stroke-linejoin:miter;stroke-miterlimit:4;stroke-opacity:1;stroke-dasharray:none" /><path
         d="m 1906.42,118.672 -39.66,0 0,83.992 c 0,13.457 -7.27,24.094 -21.8,31.899 -13.01,7.085 -29.2,10.632 -48.54,10.632 -21.19,0 -38.36,-5.039 -51.52,-15.078 -13.15,-10.058 -19.73,-22.5 -19.73,-37.304 0,-13.77 6.73,-25.672 20.21,-35.711 13.49,-10.063 30.38,-15.079 50.69,-15.079 10.9,0 20.82,1.747 29.77,5.282 8.93,3.535 17.19,8.64 24.77,15.351 l 0,-32.746 c -9.71,-5.015 -17.9,-8.594 -24.57,-10.73 -9.4,-2.149 -20.77,-3.235 -34.11,-3.235 -30.62,0 -56.02,7.66 -76.18,22.961 -20.16,15.293 -30.24,33.985 -30.24,56.035 0,22.422 9.82,40.567 29.48,54.446 20.87,14.937 48.23,22.422 82.1,22.422 33.56,0 60.18,-6.411 79.83,-19.211 19.67,-12.825 29.5,-30.071 29.5,-51.758 l 0,-82.168"
         id="path3021"
         style="fill:#ffffff;fill-opacity:1;fill-rule:nonzero;stroke:none" /><path
         d="m 1906.42,118.672 -39.66,0 0,83.992 c 0,13.457 -7.27,24.094 -21.8,31.899 -13.01,7.085 -29.2,10.632 -48.54,10.632 -21.19,0 -38.36,-5.039 -51.52,-15.078 -13.15,-10.058 -19.73,-22.5 -19.73,-37.304 0,-13.77 6.73,-25.672 20.21,-35.711 13.49,-10.063 30.38,-15.079 50.69,-15.079 10.9,0 20.82,1.747 29.77,5.282 8.93,3.535 17.19,8.64 24.77,15.351 l 0,-32.746 c -9.71,-5.015 -17.9,-8.594 -24.57,-10.73 -9.4,-2.149 -20.77,-3.235 -34.11,-3.235 -30.62,0 -56.02,7.66 -76.18,22.961 -20.16,15.293 -30.24,33.985 -30.24,56.035 0,22.422 9.82,40.567 29.48,54.446 20.87,14.937 48.23,22.422 82.1,22.422 33.56,0 60.18,-6.411 79.83,-19.211 19.67,-12.825 29.5,-30.071 29.5,-51.758 l 0,-82.168 z"
         id="path3023"
         style="fill:none;stroke:#ffffff;stroke-width:5.0999999;stroke-linecap:butt;stroke-linejoin:miter;stroke-miterlimit:4;stroke-opacity:1;stroke-dasharray:none" /><path
         d="m 2117.6,160.109 c 0,-13.461 -6.19,-23.73 -18.58,-30.812 -12.37,-7.09 -28.52,-10.625 -48.46,-10.625 l -110.52,0 0,26.601 110.29,0 c 17.17,0 25.76,4.786 25.76,14.356 0,6.73 -11.75,12.754 -35.25,18.059 -36.46,8.152 -58.16,13.464 -65.1,15.945 -23.81,8.508 -35.7,20.012 -35.7,34.543 0,13.094 6.34,23.191 19.04,30.281 12.69,7.078 30.97,10.625 54.85,10.625 l 92.91,0 0,-27.148 -99.51,0 c -9.65,0 -16.36,-0.977 -20.13,-2.918 -3.77,-1.953 -5.66,-5.411 -5.66,-10.371 0,-6.731 11.75,-12.395 35.26,-16.997 35.25,-7.429 56.95,-12.578 65.08,-15.398 23.81,-8.508 35.72,-20.559 35.72,-36.141"
         id="path3025"
         style="fill:#ffffff;fill-opacity:1;fill-rule:nonzero;stroke:none" /><path
         d="m 2117.6,160.109 c 0,-13.461 -6.19,-23.73 -18.58,-30.812 -12.37,-7.09 -28.52,-10.625 -48.46,-10.625 l -110.52,0 0,26.601 110.29,0 c 17.17,0 25.76,4.786 25.76,14.356 0,6.73 -11.75,12.754 -35.25,18.059 -36.46,8.152 -58.16,13.464 -65.1,15.945 -23.81,8.508 -35.7,20.012 -35.7,34.543 0,13.094 6.34,23.191 19.04,30.281 12.69,7.078 30.97,10.625 54.85,10.625 l 92.91,0 0,-27.148 -99.51,0 c -9.65,0 -16.36,-0.977 -20.13,-2.918 -3.77,-1.953 -5.66,-5.411 -5.66,-10.371 0,-6.731 11.75,-12.395 35.26,-16.997 35.25,-7.429 56.95,-12.578 65.08,-15.398 23.81,-8.508 35.72,-20.559 35.72,-36.141 z"
         id="path3027"
         style="fill:none;stroke:#ffffff;stroke-width:5.0999999;stroke-linecap:butt;stroke-linejoin:miter;stroke-miterlimit:4;stroke-opacity:1;stroke-dasharray:none" /><path
         d="m 2365.42,185.781 c 0,-19.922 -10.96,-36.543 -32.87,-49.851 -21.91,-13.321 -48.58,-19.985 -80,-19.985 -30.52,0 -56.81,7.297 -78.87,21.887 -22.06,14.59 -33.08,33.273 -33.08,56.047 0,22.41 10.95,41.004 32.87,55.769 21.92,14.754 48.29,22.161 79.13,22.161 24.49,0 45.43,-4.094 62.81,-12.278 17.38,-8.172 31.37,-19.734 41.95,-34.668 l -146.05,-56.23 -16.33,21.113 106.54,41.613 c -7.23,4.786 -14.32,8.282 -21.26,10.496 -6.93,2.227 -16.13,3.34 -27.58,3.34 -20.82,0 -37.78,-4.765 -50.9,-14.297 -13.13,-9.511 -19.68,-21.855 -19.68,-37.031 0,-15.527 6.64,-28.047 19.91,-37.566 13.27,-9.524 30.18,-14.278 50.7,-14.278 21.72,0 38.63,4.442 50.69,13.336 9.96,7.121 17.21,18.325 21.73,33.625 l 40.29,-3.203"
         id="path3029"
         style="fill:#ffffff;fill-opacity:1;fill-rule:nonzero;stroke:none" /><path
         d="m 2365.42,185.781 c 0,-19.922 -10.96,-36.543 -32.87,-49.851 -21.91,-13.321 -48.58,-19.985 -80,-19.985 -30.52,0 -56.81,7.297 -78.87,21.887 -22.06,14.59 -33.08,33.273 -33.08,56.047 0,22.41 10.95,41.004 32.87,55.769 21.92,14.754 48.29,22.161 79.13,22.161 24.49,0 45.43,-4.094 62.81,-12.278 17.38,-8.172 31.37,-19.734 41.95,-34.668 l -146.05,-56.23 -16.33,21.113 106.54,41.613 c -7.23,4.786 -14.32,8.282 -21.26,10.496 -6.93,2.227 -16.13,3.34 -27.58,3.34 -20.82,0 -37.78,-4.765 -50.9,-14.297 -13.13,-9.511 -19.68,-21.855 -19.68,-37.031 0,-15.527 6.64,-28.047 19.91,-37.566 13.27,-9.524 30.18,-14.278 50.7,-14.278 21.72,0 38.63,4.442 50.69,13.336 9.96,7.121 17.21,18.325 21.73,33.625 l 40.29,-3.203 z"
         id="path3031"
         style="fill:none;stroke:#ffffff;stroke-width:5.0999999;stroke-linecap:butt;stroke-linejoin:miter;stroke-miterlimit:4;stroke-opacity:1;stroke-dasharray:none" /><path
         d="m 2395.89,251.145 c 0,1.531 -0.27,2.644 -0.83,3.339 -0.56,0.692 -1.45,1.25 -2.68,1.661 1.12,0.585 1.89,1.257 2.33,2.039 0.43,0.769 0.65,1.75 0.65,2.91 0,1.738 -0.75,3.215 -2.25,4.414 -1.52,1.203 -3.44,1.808 -5.81,1.808 -2.62,0 -4.71,-0.707 -6.27,-2.082 -1.57,-1.386 -2.35,-3.3 -2.35,-5.722 l 0,-14.403 3.51,0 0,15.125 c 0,1.27 0.47,2.286 1.4,3.055 0.95,0.774 2.19,1.152 3.71,1.152 1.24,0 2.31,-0.332 3.21,-0.972 0.9,-0.656 1.35,-1.496 1.35,-2.531 0,-1.18 -0.51,-2.079 -1.52,-2.696 -1,-0.613 -2.31,-0.918 -3.93,-0.918 l -2.74,0 0,-2.761 3.91,0 c 1.62,0 2.81,-0.305 3.57,-0.918 0.75,-0.618 1.14,-1.497 1.14,-2.637 l 0,-5.899 3.6,0 0,6.036 z m 5.62,18.406 c -3.97,3.601 -8.76,5.41 -14.33,5.41 -5.55,0 -10.26,-1.785 -14.13,-5.352 -4.05,-3.691 -6.06,-8.308 -6.06,-13.867 0,-5.508 2.01,-10.097 6.06,-13.789 3.91,-3.496 8.62,-5.242 14.13,-5.242 5.57,0 10.36,1.797 14.33,5.391 3.98,3.582 5.96,8.132 5.96,13.64 0,5.598 -1.98,10.196 -5.96,13.809 z m -3.17,-24.973 c -2.98,-2.976 -6.69,-4.469 -11.13,-4.469 -4.41,0 -8.11,1.493 -11.08,4.469 -2.98,2.981 -4.46,6.711 -4.46,11.195 0,4.532 1.47,8.29 4.43,11.29 2.96,3.003 6.65,4.5 11.11,4.5 4.44,0 8.15,-1.504 11.13,-4.532 2.97,-3.015 4.46,-6.765 4.46,-11.258 0,-4.484 -1.49,-8.214 -4.46,-11.195"
         id="path3033"
         style="fill:#ffffff;fill-opacity:1;fill-rule:nonzero;stroke:none" /><path
         d="m 709.086,33.6836 c 0,-4.1914 -2.098,-7.375 -6.289,-9.5742 -4.199,-2.1836 -9.668,-3.2813 -16.414,-3.2813 l -37.434,0 0,8.0703 37.379,0 c 5.82,0 8.731,1.543 8.731,4.5977 0,2.1484 -3.985,4.0312 -11.95,5.6758 -12.355,2.4492 -19.711,4.0898 -22.058,4.8984 -8.067,2.5508 -12.102,6.125 -12.102,10.7344 0,4.082 2.145,7.1992 6.438,9.3437 4.293,2.1407 10.472,3.2149 18.551,3.2149 l 31.414,0 0,-8.293 -33.657,0 c -3.265,0 -5.535,-0.3008 -6.808,-0.918 -1.278,-0.6015 -1.914,-1.6757 -1.914,-3.2109 0,-2.043 3.98,-3.8281 11.949,-5.3516 11.949,-2.2343 19.301,-3.8164 22.058,-4.7343 8.071,-2.668 12.106,-6.3789 12.106,-11.1719"
         id="path3035"
         style="fill:#ffffff;fill-opacity:1;fill-rule:nonzero;stroke:none" /><path
         d="m 772.926,20.8281 -17.891,0 c -6.832,0 -12.129,1.3282 -15.898,3.9883 -3.778,2.6445 -5.66,6.3281 -5.66,11.0234 l 0,43.2149 13.386,0 0,-11.6914 26.063,0 0,-8.293 -26.063,0 0,-24.2265 c 0,-2.129 0.789,-3.6524 2.367,-4.5704 1.571,-0.9179 4.086,-1.375 7.543,-1.375 l 16.153,0 0,-8.0703"
         id="path3037"
         style="fill:#ffffff;fill-opacity:1;fill-rule:nonzero;stroke:none" /><path
         d="m 866.172,20.8281 -13.391,0 0,25.9688 c 0,4.0625 -2.453,7.3828 -7.351,9.9219 -4.399,2.1406 -9.864,3.2148 -16.403,3.2148 -7.152,0 -12.953,-1.543 -17.39,-4.6406 -4.446,-3.086 -6.664,-6.9024 -6.664,-11.4532 0,-4.3554 2.269,-8.0664 6.82,-11.1523 4.539,-3.0859 10.234,-4.6289 17.078,-4.6289 3.68,0 7.024,0.5469 10.035,1.668 3.012,1.1132 5.797,2.6757 8.352,4.707 l 0,-10.1563 c -3.274,-1.5351 -6.031,-2.6054 -8.278,-3.2226 -3.175,-0.7227 -7.007,-1.0742 -11.507,-1.0742 -10.325,0 -18.887,2.375 -25.692,7.1211 -6.797,4.7461 -10.199,10.5351 -10.199,17.3828 0,6.832 3.32,12.4492 9.957,16.832 7.047,4.6016 16.281,6.8984 27.719,6.8984 11.332,0 20.316,-1.9921 26.957,-5.9882 6.637,-3.9844 9.957,-9.3438 9.957,-16.0938 l 0,-25.3047"
         id="path3039"
         style="fill:#ffffff;fill-opacity:1;fill-rule:nonzero;stroke:none" /><path
         d="m 933.09,20.8281 -17.891,0 c -6.832,0 -12.129,1.3282 -15.898,3.9883 -3.774,2.6445 -5.656,6.3281 -5.656,11.0234 l 0,43.2149 13.386,0 0,-11.6914 26.059,0 0,-8.293 -26.059,0 0,-24.2265 c 0,-2.129 0.785,-3.6524 2.364,-4.5704 1.574,-0.9179 4.085,-1.375 7.543,-1.375 l 16.152,0 0,-8.0703"
         id="path3041"
         style="fill:#ffffff;fill-opacity:1;fill-rule:nonzero;stroke:none" /><path
         d="m 975.336,20.8281 -13.387,0 0,46.5352 13.387,0 0,-46.5352 z m 1.273,57.1328 c 0,-1.5546 -0.675,-2.8242 -2.031,-3.8125 -1.355,-0.9843 -3.332,-1.4726 -5.933,-1.4726 -2.411,0 -4.336,0.5156 -5.79,1.5547 -1.46,1.0429 -2.179,2.2851 -2.179,3.7304 0,1.4414 0.695,2.6641 2.101,3.6485 1.403,0.9883 3.356,1.4765 5.868,1.4765 2.402,0 4.328,-0.5195 5.789,-1.5429 1.449,-1.0469 2.175,-2.2344 2.175,-3.5821"
         id="path3043"
         style="fill:#ffffff;fill-opacity:1;fill-rule:nonzero;stroke:none" /><path
         d="m 1066.97,33.6836 c 0,-4.1914 -2.1,-7.375 -6.29,-9.5742 -4.2,-2.1836 -9.67,-3.2813 -16.41,-3.2813 l -37.44,0 0,8.0703 37.38,0 c 5.82,0 8.73,1.543 8.73,4.5977 0,2.1484 -3.98,4.0312 -11.94,5.6758 -12.36,2.4492 -19.72,4.0898 -22.06,4.8984 -8.08,2.5508 -12.11,6.125 -12.11,10.7344 0,4.082 2.15,7.1992 6.44,9.3437 4.29,2.1407 10.47,3.2149 18.55,3.2149 l 31.42,0 0,-8.293 -33.66,0 c -3.27,0 -5.54,-0.3008 -6.81,-0.918 -1.28,-0.6015 -1.91,-1.6757 -1.91,-3.2109 0,-2.043 3.98,-3.8281 11.95,-5.3516 11.95,-2.2343 19.3,-3.8164 22.06,-4.7343 8.06,-2.668 12.1,-6.3789 12.1,-11.1719"
         id="path3045"
         style="fill:#ffffff;fill-opacity:1;fill-rule:nonzero;stroke:none" /><path
         d="m 1130.81,20.8281 -17.89,0 c -6.83,0 -12.13,1.3282 -15.9,3.9883 -3.77,2.6445 -5.66,6.3281 -5.66,11.0234 l 0,43.2149 13.39,0 0,-11.6914 26.06,0 0,-8.293 -26.06,0 0,-24.2265 c 0,-2.129 0.79,-3.6524 2.36,-4.5704 1.57,-0.9179 4.09,-1.375 7.54,-1.375 l 16.16,0 0,-8.0703"
         id="path3047"
         style="fill:#ffffff;fill-opacity:1;fill-rule:nonzero;stroke:none" /><path
         d="m 1173.06,20.8281 -13.39,0 0,46.5352 13.39,0 0,-46.5352 z m 1.27,57.1328 c 0,-1.5546 -0.68,-2.8242 -2.03,-3.8125 -1.36,-0.9843 -3.34,-1.4726 -5.94,-1.4726 -2.4,0 -4.33,0.5156 -5.79,1.5547 -1.45,1.0429 -2.18,2.2851 -2.18,3.7304 0,1.4414 0.7,2.6641 2.11,3.6485 1.4,0.9883 3.35,1.4765 5.86,1.4765 2.4,0 4.33,-0.5195 5.79,-1.5429 1.45,-1.0469 2.18,-2.2344 2.18,-3.5821"
         id="path3049"
         style="fill:#ffffff;fill-opacity:1;fill-rule:nonzero;stroke:none" /><path
         d="m 1256.25,20.8281 -12.73,0 c -9.3,0 -17.52,1.9453 -24.68,5.8321 -7.97,4.5117 -11.95,10.2929 -11.95,17.3632 0,6.9532 3.98,12.6954 11.95,17.1993 7.16,4.0898 15.38,6.1406 24.68,6.1406 l 12.73,0 0,-8.293 -10.25,0 c -6.83,0 -12.6,-1.2578 -17.29,-3.7969 -5.2,-2.7539 -7.8,-6.5039 -7.8,-11.289 0,-4.5703 2.6,-8.2813 7.8,-11.125 4.8,-2.6328 10.55,-3.961 17.29,-3.961 l 10.25,0 0,-8.0703"
         id="path3051"
         style="fill:#ffffff;fill-opacity:1;fill-rule:nonzero;stroke:none" /><path
         d="m 1336.11,33.6836 c 0,-4.1914 -2.1,-7.375 -6.29,-9.5742 -4.19,-2.1836 -9.66,-3.2813 -16.41,-3.2813 l -37.44,0 0,8.0703 37.39,0 c 5.81,0 8.73,1.543 8.73,4.5977 0,2.1484 -3.99,4.0312 -11.95,5.6758 -12.37,2.4492 -19.72,4.0898 -22.06,4.8984 -8.07,2.5508 -12.11,6.125 -12.11,10.7344 0,4.082 2.15,7.1992 6.44,9.3437 4.29,2.1407 10.47,3.2149 18.55,3.2149 l 31.42,0 0,-8.293 -33.66,0 c -3.26,0 -5.54,-0.3008 -6.81,-0.918 -1.28,-0.6015 -1.91,-1.6757 -1.91,-3.2109 0,-2.043 3.98,-3.8281 11.95,-5.3516 11.95,-2.2343 19.3,-3.8164 22.05,-4.7343 8.07,-2.668 12.11,-6.3789 12.11,-11.1719"
         id="path3053"
         style="fill:#ffffff;fill-opacity:1;fill-rule:nonzero;stroke:none" /><path
         d="m 1513.38,20.8281 -13.39,0 0,29.4766 c 0,3.0547 -1.2,5.4297 -3.61,7.0976 -2.4,1.6797 -5.66,2.5313 -9.75,2.5313 -4.39,0 -7.87,-0.9023 -10.43,-2.6758 -2.56,-1.789 -3.84,-4.5625 -3.84,-8.3203 l 0,-28.1094 -13.39,0 0,28.1094 c 0,3.8555 -1.22,6.6602 -3.67,8.3867 -2.45,1.7383 -6.02,2.6094 -10.72,2.6094 -3.88,0 -7.02,-0.8516 -9.41,-2.5313 -2.41,-1.6679 -3.61,-4.0429 -3.61,-7.0976 l 0,-29.4766 -13.39,0 0,31.5938 c 0,4.3945 2.49,8.125 7.46,11.1914 4.95,3.0664 11.17,4.6015 18.63,4.6015 4.4,0 8.47,-0.539 12.2,-1.6132 3.74,-1.0821 6.78,-2.6953 9.14,-4.8555 2.45,2.1602 5.52,3.7734 9.21,4.8555 3.69,1.0742 7.78,1.6132 12.3,1.6132 7.47,0 13.71,-1.5351 18.74,-4.6015 5.01,-3.0664 7.53,-6.7969 7.53,-11.1914 l 0,-31.5938"
         id="path3055"
         style="fill:#ffffff;fill-opacity:1;fill-rule:nonzero;stroke:none" /><path
         d="m 1611.83,20.8281 -13.39,0 0,25.9688 c 0,4.0625 -2.45,7.3828 -7.36,9.9219 -4.39,2.1406 -9.86,3.2148 -16.39,3.2148 -7.15,0 -12.95,-1.543 -17.4,-4.6406 -4.45,-3.086 -6.66,-6.9024 -6.66,-11.4532 0,-4.3554 2.27,-8.0664 6.81,-11.1523 4.55,-3.0859 10.25,-4.6289 17.09,-4.6289 3.67,0 7.02,0.5469 10.04,1.668 3.01,1.1132 5.78,2.6757 8.35,4.707 l 0,-10.1563 c -3.28,-1.5351 -6.04,-2.6054 -8.29,-3.2226 -3.17,-0.7227 -7,-1.0742 -11.5,-1.0742 -10.33,0 -18.89,2.375 -25.69,7.1211 -6.81,4.7461 -10.19,10.5351 -10.19,17.3828 0,6.832 3.31,12.4492 9.94,16.832 7.05,4.6016 16.29,6.8984 27.72,6.8984 11.34,0 20.32,-1.9921 26.97,-5.9882 6.63,-3.9844 9.95,-9.3438 9.95,-16.0938 l 0,-25.3047"
         id="path3057"
         style="fill:#ffffff;fill-opacity:1;fill-rule:nonzero;stroke:none" /><path
         d="m 1709,45.4297 c 0,-7.5703 -3.45,-13.6992 -10.34,-18.3984 -6.89,-4.7071 -15.75,-7.0508 -26.57,-7.0508 -11.45,0 -20.67,2.4531 -27.72,7.3437 -6.64,4.8047 -9.96,10.7735 -9.96,17.918 0,6.4375 3.46,11.8672 10.37,16.3125 6.9,4.4297 15.16,6.6601 24.79,6.6601 7.68,0 14.59,-1.0742 20.73,-3.2343 l 0,-8.9063 c -2.57,0.9883 -5.54,1.875 -8.97,2.6641 -3.44,0.793 -6.57,1.1953 -9.45,1.1953 -7.25,0 -13.08,-1.457 -17.49,-4.3281 -4.39,-2.8907 -6.59,-6.7071 -6.59,-11.4649 0,-4.7539 2.27,-8.6211 6.82,-11.6133 4.55,-2.9765 10.39,-4.4687 17.55,-4.4687 6.74,0 12.33,1.6289 16.78,4.8906 4.44,3.2617 6.66,7.9688 6.66,14.0821 l 0,41.7968 13.39,0 0,-43.3984"
         id="path3059"
         style="fill:#ffffff;fill-opacity:1;fill-rule:nonzero;stroke:none" /><path
         d="m 1808.03,41.543 c 0,-6.1446 -3.7,-11.2617 -11.11,-15.3828 -7.42,-4.1289 -16.42,-6.1797 -27.05,-6.1797 -10.32,0 -19.22,2.2461 -26.67,6.7383 -7.46,4.4921 -11.2,10.2539 -11.2,17.3046 0,6.9336 3.71,12.7071 11.13,17.293 7.41,4.6016 16.33,6.8984 26.76,6.8984 8.28,0 15.36,-1.2617 21.24,-3.7617 5.88,-2.5117 10.61,-6.1133 14.18,-10.832 l -49.39,-17.2813 -5.65,6.5899 36.16,12.6367 c -2.46,1.5039 -4.85,2.6094 -7.19,3.3125 -2.36,0.6914 -5.47,1.0547 -9.34,1.0547 -7.04,0 -12.77,-1.4766 -17.2,-4.4063 -4.45,-2.9375 -6.66,-6.7773 -6.66,-11.5429 0,-4.6485 2.24,-8.4649 6.72,-11.4571 4.5,-2.9765 10.22,-4.4687 17.16,-4.4687 7.35,0 13.07,1.375 17.15,4.1289 3.36,2.2539 5.81,5.7227 7.34,10.4219 l 13.62,-1.0664"
         id="path3061"
         style="fill:#ffffff;fill-opacity:1;fill-rule:nonzero;stroke:none" /><path
         d="m 1964.37,41.543 c 0,-6.1446 -3.71,-11.2617 -11.12,-15.3828 -7.41,-4.1289 -16.42,-6.1797 -27.05,-6.1797 -10.32,0 -19.21,2.2461 -26.67,6.7383 -7.46,4.4921 -11.19,10.2539 -11.19,17.3046 0,6.9336 3.71,12.7071 11.12,17.293 7.42,4.6016 16.34,6.8984 26.76,6.8984 8.28,0 15.37,-1.2617 21.24,-3.7617 5.88,-2.5117 10.62,-6.1133 14.2,-10.832 l -49.4,-17.2813 -5.66,6.5899 36.15,12.6367 c -2.45,1.5039 -4.84,2.6094 -7.18,3.3125 -2.36,0.6914 -5.46,1.0547 -9.34,1.0547 -7.03,0 -12.77,-1.4766 -17.21,-4.4063 -4.43,-2.9375 -6.65,-6.7773 -6.65,-11.5429 0,-4.6485 2.24,-8.4649 6.73,-11.4571 4.49,-2.9765 10.21,-4.4687 17.15,-4.4687 7.34,0 13.07,1.375 17.15,4.1289 3.37,2.2539 5.82,5.7227 7.35,10.4219 l 13.62,-1.0664"
         id="path3063"
         style="fill:#ffffff;fill-opacity:1;fill-rule:nonzero;stroke:none" /><path
         d="m 2059.68,20.8281 -13.39,0 0,25.9688 c 0,4.0625 -2.45,7.3828 -7.35,9.9219 -4.4,2.1406 -9.87,3.2148 -16.4,3.2148 -7.16,0 -12.95,-1.543 -17.39,-4.6406 -4.45,-3.086 -6.67,-6.9024 -6.67,-11.4532 0,-4.3554 2.27,-8.0664 6.82,-11.1523 4.54,-3.0859 10.23,-4.6289 17.08,-4.6289 3.67,0 7.01,0.5469 10.03,1.668 3.01,1.1132 5.8,2.6757 8.35,4.707 l 0,-10.1563 c -3.27,-1.5351 -6.03,-2.6054 -8.28,-3.2226 -3.17,-0.7227 -7,-1.0742 -11.5,-1.0742 -10.33,0 -18.89,2.375 -25.69,7.1211 -6.79,4.7461 -10.2,10.5351 -10.2,17.3828 0,6.832 3.32,12.4492 9.96,16.832 7.04,4.6016 16.28,6.8984 27.71,6.8984 11.33,0 20.33,-1.9921 26.96,-5.9882 6.64,-3.9844 9.96,-9.3438 9.96,-16.0938 l 0,-25.3047"
         id="path3065"
         style="fill:#ffffff;fill-opacity:1;fill-rule:nonzero;stroke:none" /><path
         d="m 2142.62,33.6836 c 0,-4.1914 -2.11,-7.375 -6.29,-9.5742 -4.2,-2.1836 -9.67,-3.2813 -16.43,-3.2813 l -37.43,0 0,8.0703 37.38,0 c 5.82,0 8.73,1.543 8.73,4.5977 0,2.1484 -3.98,4.0312 -11.95,5.6758 -12.35,2.4492 -19.71,4.0898 -22.06,4.8984 -8.07,2.5508 -12.1,6.125 -12.1,10.7344 0,4.082 2.15,7.1992 6.45,9.3437 4.28,2.1407 10.46,3.2149 18.54,3.2149 l 31.42,0 0,-8.293 -33.67,0 c -3.26,0 -5.52,-0.3008 -6.79,-0.918 -1.28,-0.6015 -1.92,-1.6757 -1.92,-3.2109 0,-2.043 3.98,-3.8281 11.95,-5.3516 11.94,-2.2343 19.3,-3.8164 22.06,-4.7343 8.06,-2.668 12.11,-6.3789 12.11,-11.1719"
         id="path3067"
         style="fill:#ffffff;fill-opacity:1;fill-rule:nonzero;stroke:none" /><path
         d="m 2226.5,39.4414 c 0,-5.4258 -1.97,-9.6953 -5.91,-12.8203 -3.95,-3.1133 -9.91,-5.3438 -17.89,-6.6719 l 0,-19.9492 -13.38,0 0,19.9492 c -15.73,2.5625 -23.6,9.0547 -23.6,19.4922 l 0,27.9219 13.4,0 0,-27.8399 c 0,-3.3711 1.47,-6.125 4.43,-8.2539 2.96,-2.1484 7.15,-3.2109 12.56,-3.2109 5.41,0 9.6,1.0625 12.56,3.2109 2.96,2.1289 4.45,4.8828 4.45,8.2539 l 0,27.8399 13.38,0 0,-27.9219"
         id="path3069"
         style="fill:#ffffff;fill-opacity:1;fill-rule:nonzero;stroke:none" /><path
         d="M 213.223,503.527 C 136.621,472.703 94.4375,432.316 94.4375,389.789 c 0,-65.055 98.5545,-123.734 250.7505,-149.469 5.109,-0.523 10.371,-0.808 15.539,-1.257 -100.254,26.628 -162.051,71.933 -162.051,122.277 0,40.039 38.379,77.265 108.062,104.805 68.18,26.953 158.711,41.789 254.934,41.789 159.617,0 298.199,-41.204 345.531,-101.332 0.5,3.496 0.777,6.976 0.777,10.437 0,0 -0.328,5.574 -0.421,7.203 -41.524,74.211 -210.098,127.988 -401.746,127.988 -110.61,0 -214.524,-17.289 -292.59,-48.703"
         id="path3071"
         style="fill:#4f58ae;fill-opacity:1;fill-rule:nonzero;stroke:none" /><path
         d="m 321.563,335.41 c 0,60.586 134.777,111.754 294.296,111.754 125.055,0 235.446,-30.16 277.387,-75.328 -2.324,-3.457 -4.894,-6.875 -7.734,-10.281 -44.766,32.015 -127.696,51.797 -218.535,51.797 -141.739,0 -252.766,-46.036 -252.766,-104.805 0,-27.07 24.512,-52.539 67.852,-71.692 -0.715,-0.031 -3.016,-0.097 -3.137,-0.117 -95.613,19.414 -157.363,58.133 -157.363,98.672"
         id="path3073"
         style="fill:#4f58ae;fill-opacity:1;fill-rule:nonzero;stroke:none" /><path
         d="m 209.215,362.473 c 0,35.547 36.074,69.379 101.574,95.277 67.008,26.488 156.207,41.078 251.164,41.078 160.375,0 303.422,-43.707 342.328,-104.164 -1.566,-4.793 -3.683,-9.547 -6.207,-14.258 -45.336,45.918 -157.101,76.442 -282.793,76.442 -170.765,0 -304.539,-53.59 -304.539,-122.004 0,-39.793 46.832,-76.067 124.68,-98.653 -2.168,0.032 -5.832,0.071 -5.988,0.071 -131.731,20.926 -220.219,71.621 -220.219,126.211"
         id="path3075"
         style="fill:#4f58ae;fill-opacity:1;fill-rule:nonzero;stroke:none" /><path
         d="M 457.551,602.129 C 204.855,602.129 0,518.242 0,414.766 0,337.305 114.98,272.258 278.688,243.73 c -23.915,6.895 -46.555,13.711 -67.184,22.208 -88.539,36.445 -126.6876,78.261 -126.6876,125.261 0,46.989 45.0276,88.801 125.7656,121.281 79.258,31.887 185.332,47.727 297.227,47.727 111.882,0 217.164,-17.566 296.414,-49.445 50.937,-20.504 87.422,-45.485 107.422,-72.93 -27.754,92.582 -220.469,164.297 -454.094,164.297"
         id="path3077"
         style="fill:#4f58ae;fill-opacity:1;fill-rule:nonzero;stroke:none" /><path
         d="m 2282.04,57.168 c 0,1.5312 -0.27,2.6484 -0.83,3.3398 -0.56,0.6914 -1.44,1.25 -2.67,1.6602 1.11,0.5859 1.88,1.2617 2.32,2.0429 0.43,0.7696 0.65,1.7461 0.65,2.9063 0,1.7422 -0.75,3.2148 -2.25,4.4141 -1.52,1.2031 -3.44,1.8085 -5.8,1.8085 -2.63,0 -4.72,-0.7031 -6.28,-2.0781 -1.56,-1.3906 -2.35,-3.3008 -2.35,-5.7265 l 0,-14.4024 3.51,0 0,15.1289 c 0,1.2656 0.47,2.2852 1.41,3.0547 0.94,0.7734 2.18,1.1524 3.71,1.1524 1.23,0 2.3,-0.3321 3.2,-0.9766 0.9,-0.6524 1.35,-1.4961 1.35,-2.5274 0,-1.1835 -0.51,-2.082 -1.52,-2.6953 -1,-0.6172 -2.31,-0.9179 -3.93,-0.9179 l -2.74,0 0,-2.7657 3.91,0 c 1.62,0 2.81,-0.3046 3.57,-0.9179 0.76,-0.6133 1.14,-1.4922 1.14,-2.6367 l 0,-5.8985 3.6,0 0,6.0352 z m 5.63,18.4062 c -3.98,3.6055 -8.76,5.4102 -14.34,5.4102 -5.55,0 -10.25,-1.7852 -14.13,-5.3477 -4.04,-3.6953 -6.06,-8.3125 -6.06,-13.8672 0,-5.5078 2.02,-10.0976 6.06,-13.789 3.92,-3.4961 8.62,-5.2461 14.13,-5.2461 5.58,0 10.36,1.7969 14.34,5.3906 3.97,3.5859 5.95,8.1367 5.95,13.6445 0,5.5938 -1.98,10.1953 -5.95,13.8047 z m -3.18,-24.9687 c -2.98,-2.9766 -6.69,-4.4727 -11.13,-4.4727 -4.4,0 -8.11,1.4961 -11.07,4.4727 -2.98,2.9804 -4.47,6.7109 -4.47,11.1914 0,4.5312 1.48,8.2929 4.44,11.289 2.95,3.0079 6.65,4.5039 11.1,4.5039 4.44,0 8.15,-1.5039 11.13,-4.5312 2.97,-3.0195 4.47,-6.7695 4.47,-11.2617 0,-4.4805 -1.5,-8.211 -4.47,-11.1914"
         id="path3079"
         style="fill:#ffffff;fill-opacity:1;fill-rule:nonzero;stroke:none" /></g></g></svg>
